<?xml version="1.0" standalone="no"?>
<!DOCTYPE svg PUBLIC "-//W3C//DTD SVG 20010904//EN"
 "http://www.w3.org/TR/2001/REC-SVG-20010904/DTD/svg10.dtd">
<svg version="1.0" xmlns="http://www.w3.org/2000/svg"
 width="700.000000pt" height="700.000000pt" viewBox="0 0 700.000000 700.000000"
 preserveAspectRatio="xMidYMid meet">
<metadata>
Created by potrace 1.14, written by Peter Selinger 2001-2017
</metadata>
<g transform="translate(0.000000,700.000000) scale(0.100000,-0.100000)"
fill="#000000" stroke="none">
<path d="M0 3500 l0 -3500 3500 0 3500 0 0 3500 0 3500 -3500 0 -3500 0 0
-3500z m4689 2579 c424 -71 827 -338 1063 -704 110 -170 197 -389 234 -590 26
-140 26 -430 0 -570 -49 -264 -170 -527 -337 -731 -65 -80 -216 -226 -279
-269 l-41 -29 -96 96 -95 95 36 71 c20 39 48 111 63 159 25 82 27 101 27 268
1 164 -2 190 -27 289 -144 573 -639 1052 -1217 1178 -144 32 -352 29 -483 -5
-53 -14 -133 -44 -176 -65 l-79 -40 -95 97 -96 96 68 85 c281 349 696 562
1156 594 88 5 257 -6 374 -25z m-1646 -2182 c-423 -422 -795 -789 -828 -814
-78 -60 -180 -108 -285 -134 -71 -18 -104 -21 -210 -17 -106 4 -138 10 -213
35 -124 44 -189 85 -292 188 -103 103 -144 168 -188 292 -25 75 -31 107 -35
213 -4 106 -1 139 17 210 112 447 594 711 999 547 98 -39 167 -85 264 -176
l89 -84 -97 -98 -98 -98 -79 75 c-129 124 -261 171 -407 145 -205 -37 -373
-206 -410 -411 -58 -321 240 -618 560 -561 39 7 104 29 143 48 68 34 118 81
857 819 l785 784 98 -98 97 -97 -767 -768z m1427 658 l95 -95 -1236 -1238
c-680 -680 -1251 -1258 -1268 -1284 -81 -122 -113 -243 -92 -356 27 -145 140
-291 280 -360 73 -36 78 -37 185 -37 104 0 115 2 179 32 88 42 182 135 222
218 21 45 29 80 33 139 9 148 -38 266 -157 397 l-70 76 100 93 100 93 35 -34
c111 -107 204 -254 246 -389 19 -63 23 -96 23 -210 -1 -120 -4 -143 -27 -208
-67 -186 -215 -346 -399 -431 -96 -45 -171 -61 -284 -61 -124 0 -193 17 -310
75 -200 99 -358 288 -416 500 -18 67 -21 97 -17 199 6 148 33 240 110 371 50
86 107 145 1307 1348 691 691 1258 1257 1261 1257 3 0 48 -43 100 -95z m190
-740 l95 -95 -526 -528 c-597 -598 -573 -569 -574 -722 0 -71 4 -94 27 -142
53 -114 150 -188 272 -208 155 -25 312 63 383 215 23 50 28 73 28 140 -1 103
-24 153 -119 253 l-70 73 97 97 97 97 61 -60 c191 -189 256 -399 193 -625 -45
-159 -191 -335 -336 -404 -321 -153 -698 -26 -847 287 -50 105 -65 170 -64
282 0 106 21 191 70 289 32 65 78 114 571 609 295 295 539 537 542 537 3 0 48
-43 100 -95z"/>
<path d="M4201 5814 c-121 -19 -287 -73 -393 -127 l-83 -42 122 -7 c694 -41
1343 -538 1598 -1223 51 -136 83 -284 96 -445 6 -74 13 -137 14 -138 7 -7 86
170 114 255 45 134 64 258 63 418 -1 363 -132 678 -391 935 -196 194 -418 313
-684 366 -117 23 -340 27 -456 8z"/>
</g>
</svg>
