<?xml version="1.0" encoding="UTF-8" standalone="no"?>
<!DOCTYPE svg PUBLIC "-//W3C//DTD SVG 1.1//EN" "http://www.w3.org/Graphics/SVG/1.1/DTD/svg11.dtd">
<svg width="100%" height="100%" viewBox="0 0 2000 600" version="1.1" xmlns="http://www.w3.org/2000/svg" xmlns:xlink="http://www.w3.org/1999/xlink" xml:space="preserve" xmlns:serif="http://www.serif.com/" style="fill-rule:evenodd;clip-rule:evenodd;stroke-linejoin:round;stroke-miterlimit:2;">
    <g transform="matrix(1,0,0,1,-9171.61,-8608.34)">
        <g id="FujinServer24" transform="matrix(0.984395,0,0,0.422059,-3536.28,4601.02)">
            <rect x="12909.3" y="9494.69" width="2031.71" height="1421.6" style="fill:none;"/>
            <clipPath id="_clip1">
                <rect x="12909.3" y="9494.69" width="2031.71" height="1421.6"/>
            </clipPath>
            <g clip-path="url(#_clip1)">
                <g transform="matrix(1.66228,0,0,3.87704,-37137.3,-40115.1)">
                    <g transform="matrix(168.734,0,0,168.734,30102.1,13092.3)">
                        <path d="M0.03,-0.54L0.115,-0.54C0.115,-0.563 0.115,-0.581 0.116,-0.595C0.117,-0.609 0.12,-0.624 0.126,-0.641C0.131,-0.657 0.139,-0.672 0.151,-0.685C0.169,-0.705 0.19,-0.719 0.212,-0.725C0.235,-0.732 0.259,-0.735 0.286,-0.735L0.376,-0.735L0.376,-0.625L0.314,-0.625C0.293,-0.625 0.278,-0.62 0.267,-0.61C0.256,-0.599 0.251,-0.586 0.251,-0.57L0.251,-0.54L0.376,-0.54L0.376,-0.435L0.251,-0.435L0.251,-0L0.115,-0L0.115,-0.435L0.03,-0.435L0.03,-0.54Z" style="fill:white;fill-rule:nonzero;"/>
                    </g>
                    <g transform="matrix(168.734,0,0,168.734,30167.3,13092.3)">
                        <path d="M0.271,0.016C0.208,0.016 0.16,-0 0.129,-0.033C0.098,-0.065 0.079,-0.099 0.071,-0.135C0.064,-0.171 0.06,-0.205 0.06,-0.237L0.06,-0.54L0.198,-0.54L0.198,-0.285C0.198,-0.258 0.2,-0.232 0.204,-0.208C0.208,-0.184 0.219,-0.162 0.236,-0.142C0.253,-0.122 0.279,-0.112 0.314,-0.112C0.345,-0.112 0.372,-0.123 0.395,-0.144C0.418,-0.166 0.429,-0.206 0.429,-0.266L0.429,-0.54L0.566,-0.54L0.566,-0L0.446,-0L0.446,-0.056C0.426,-0.033 0.401,-0.015 0.372,-0.003C0.342,0.01 0.309,0.016 0.271,0.016Z" style="fill:white;fill-rule:nonzero;"/>
                    </g>
                    <g transform="matrix(168.734,0,0,168.734,30274.6,13092.3)">
                        <path d="M-0.01,0.113L0.014,0.113C0.044,0.113 0.065,0.106 0.077,0.093C0.089,0.08 0.095,0.059 0.095,0.032L0.095,-0.54L0.231,-0.54L0.231,0.098C0.231,0.126 0.225,0.151 0.213,0.173C0.201,0.194 0.183,0.211 0.161,0.222C0.138,0.234 0.112,0.24 0.082,0.24L-0.01,0.24L-0.01,0.113ZM0.095,-0.735L0.231,-0.735L0.231,-0.615L0.095,-0.615L0.095,-0.735Z" style="fill:white;fill-rule:nonzero;"/>
                    </g>
                    <g transform="matrix(168.734,0,0,168.734,30325.4,13092.3)">
                        <path d="M0.08,-0.735L0.216,-0.735L0.216,-0.615L0.08,-0.615L0.08,-0.735ZM0.08,-0.54L0.216,-0.54L0.216,-0L0.08,-0L0.08,-0.54Z" style="fill:white;fill-rule:nonzero;"/>
                    </g>
                    <g transform="matrix(168.734,0,0,168.734,30375.3,13092.3)">
                        <path d="M0.438,-0.255C0.438,-0.282 0.436,-0.308 0.432,-0.332C0.428,-0.356 0.417,-0.378 0.4,-0.398C0.383,-0.418 0.357,-0.428 0.322,-0.428C0.291,-0.428 0.264,-0.417 0.241,-0.396C0.218,-0.374 0.207,-0.334 0.207,-0.274L0.207,-0L0.069,-0L0.069,-0.54L0.19,-0.54L0.19,-0.485C0.21,-0.507 0.235,-0.525 0.265,-0.537C0.294,-0.55 0.327,-0.556 0.365,-0.556C0.428,-0.556 0.476,-0.54 0.507,-0.507C0.538,-0.475 0.557,-0.441 0.565,-0.405C0.572,-0.369 0.576,-0.335 0.576,-0.303L0.576,-0L0.438,-0L0.438,-0.255Z" style="fill:white;fill-rule:nonzero;"/>
                    </g>
                    <g transform="matrix(168.734,0,0,168.734,30516.4,13092.3)">
                        <path d="M0.342,0.015C0.289,0.015 0.241,0.005 0.198,-0.014C0.155,-0.033 0.119,-0.06 0.092,-0.095C0.065,-0.13 0.047,-0.172 0.04,-0.22L0.182,-0.241C0.189,-0.214 0.2,-0.191 0.217,-0.171C0.233,-0.152 0.253,-0.137 0.276,-0.127C0.299,-0.117 0.324,-0.112 0.351,-0.112C0.374,-0.112 0.396,-0.116 0.417,-0.123C0.438,-0.13 0.455,-0.141 0.468,-0.155C0.481,-0.169 0.488,-0.185 0.488,-0.204C0.488,-0.22 0.483,-0.234 0.472,-0.246C0.462,-0.258 0.444,-0.268 0.418,-0.276L0.231,-0.331C0.204,-0.339 0.179,-0.348 0.156,-0.361C0.133,-0.373 0.113,-0.392 0.095,-0.418C0.077,-0.444 0.068,-0.477 0.068,-0.519C0.068,-0.565 0.08,-0.605 0.103,-0.637C0.127,-0.669 0.159,-0.694 0.199,-0.71C0.239,-0.726 0.284,-0.734 0.334,-0.734C0.409,-0.734 0.472,-0.716 0.523,-0.679C0.573,-0.643 0.607,-0.591 0.625,-0.523L0.478,-0.498C0.473,-0.521 0.463,-0.541 0.448,-0.558C0.433,-0.574 0.415,-0.586 0.395,-0.595C0.374,-0.603 0.353,-0.607 0.33,-0.607C0.309,-0.607 0.289,-0.604 0.271,-0.597C0.253,-0.59 0.238,-0.581 0.228,-0.569C0.217,-0.556 0.211,-0.542 0.211,-0.526C0.211,-0.505 0.22,-0.489 0.237,-0.477C0.254,-0.466 0.278,-0.457 0.307,-0.449L0.432,-0.415C0.468,-0.405 0.499,-0.394 0.527,-0.382C0.554,-0.369 0.579,-0.349 0.6,-0.322C0.621,-0.294 0.631,-0.258 0.631,-0.214C0.631,-0.165 0.618,-0.123 0.591,-0.088C0.564,-0.054 0.529,-0.028 0.485,-0.011C0.441,0.006 0.393,0.015 0.342,0.015Z" style="fill:white;fill-rule:nonzero;"/>
                    </g>
                    <g transform="matrix(168.734,0,0,168.734,30629.6,13092.3)">
                        <path d="M0.321,0.015C0.266,0.015 0.218,0.003 0.175,-0.021C0.133,-0.044 0.1,-0.077 0.076,-0.119C0.052,-0.162 0.04,-0.21 0.04,-0.263C0.04,-0.321 0.052,-0.372 0.075,-0.416C0.098,-0.46 0.13,-0.495 0.172,-0.519C0.213,-0.543 0.26,-0.555 0.313,-0.555C0.365,-0.555 0.41,-0.544 0.449,-0.521C0.487,-0.498 0.516,-0.465 0.537,-0.423C0.557,-0.38 0.568,-0.331 0.568,-0.274C0.568,-0.265 0.567,-0.251 0.566,-0.232L0.187,-0.232C0.192,-0.193 0.205,-0.164 0.226,-0.143C0.248,-0.122 0.277,-0.112 0.313,-0.112C0.339,-0.112 0.362,-0.118 0.381,-0.13C0.4,-0.141 0.415,-0.158 0.425,-0.18L0.561,-0.141C0.548,-0.109 0.529,-0.081 0.504,-0.057C0.48,-0.034 0.452,-0.016 0.421,-0.004C0.389,0.009 0.356,0.015 0.321,0.015ZM0.428,-0.333C0.423,-0.369 0.412,-0.396 0.395,-0.412C0.377,-0.429 0.352,-0.437 0.319,-0.437C0.247,-0.437 0.204,-0.402 0.19,-0.333L0.428,-0.333Z" style="fill:white;fill-rule:nonzero;"/>
                    </g>
                    <g transform="matrix(168.734,0,0,168.734,30732.2,13092.3)">
                        <path d="M0.07,-0.54L0.19,-0.54L0.19,-0.453C0.205,-0.48 0.224,-0.5 0.248,-0.514C0.278,-0.533 0.314,-0.542 0.356,-0.542C0.367,-0.542 0.378,-0.541 0.387,-0.54L0.387,-0.413C0.377,-0.416 0.364,-0.418 0.348,-0.418C0.323,-0.418 0.301,-0.413 0.281,-0.404C0.257,-0.393 0.239,-0.377 0.226,-0.355C0.213,-0.333 0.207,-0.307 0.207,-0.276L0.207,-0L0.07,-0L0.07,-0.54Z" style="fill:white;fill-rule:nonzero;"/>
                    </g>
                    <g transform="matrix(168.734,0,0,168.734,30801.7,13092.3)">
                        <path d="M0.02,-0.54L0.156,-0.54L0.284,-0.166L0.412,-0.54L0.548,-0.54L0.352,-0L0.216,-0L0.02,-0.54Z" style="fill:white;fill-rule:nonzero;"/>
                    </g>
                    <g transform="matrix(168.734,0,0,168.734,30894.2,13092.3)">
                        <path d="M0.321,0.015C0.266,0.015 0.218,0.003 0.175,-0.021C0.133,-0.044 0.1,-0.077 0.076,-0.119C0.052,-0.162 0.04,-0.21 0.04,-0.263C0.04,-0.321 0.052,-0.372 0.075,-0.416C0.098,-0.46 0.13,-0.495 0.172,-0.519C0.213,-0.543 0.26,-0.555 0.313,-0.555C0.365,-0.555 0.41,-0.544 0.449,-0.521C0.487,-0.498 0.516,-0.465 0.537,-0.423C0.557,-0.38 0.568,-0.331 0.568,-0.274C0.568,-0.265 0.567,-0.251 0.566,-0.232L0.187,-0.232C0.192,-0.193 0.205,-0.164 0.226,-0.143C0.248,-0.122 0.277,-0.112 0.313,-0.112C0.339,-0.112 0.362,-0.118 0.381,-0.13C0.4,-0.141 0.415,-0.158 0.425,-0.18L0.561,-0.141C0.548,-0.109 0.529,-0.081 0.504,-0.057C0.48,-0.034 0.452,-0.016 0.421,-0.004C0.389,0.009 0.356,0.015 0.321,0.015ZM0.428,-0.333C0.423,-0.369 0.412,-0.396 0.395,-0.412C0.377,-0.429 0.352,-0.437 0.319,-0.437C0.247,-0.437 0.204,-0.402 0.19,-0.333L0.428,-0.333Z" style="fill:white;fill-rule:nonzero;"/>
                    </g>
                    <g transform="matrix(168.734,0,0,168.734,30996.8,13092.3)">
                        <path d="M0.07,-0.54L0.19,-0.54L0.19,-0.453C0.205,-0.48 0.224,-0.5 0.248,-0.514C0.278,-0.533 0.314,-0.542 0.356,-0.542C0.367,-0.542 0.378,-0.541 0.387,-0.54L0.387,-0.413C0.377,-0.416 0.364,-0.418 0.348,-0.418C0.323,-0.418 0.301,-0.413 0.281,-0.404C0.257,-0.393 0.239,-0.377 0.226,-0.355C0.213,-0.333 0.207,-0.307 0.207,-0.276L0.207,-0L0.07,-0L0.07,-0.54Z" style="fill:white;fill-rule:nonzero;"/>
                    </g>
                </g>
                <g transform="matrix(1.6443,0,0,3.8351,-34604.4,-39571.2)">
                    <g transform="matrix(168.734,0,0,168.734,29889.7,13092.3)">
                        <rect x="0.06" y="-0.72" width="0.136" height="0.18" style="fill:rgb(62,197,222);fill-rule:nonzero;"/>
                    </g>
                    <g transform="matrix(168.734,0,0,168.734,29936.3,13092.3)">
                        <path d="M0.05,-0.119L0.352,-0.387C0.393,-0.424 0.414,-0.459 0.414,-0.493C0.414,-0.515 0.409,-0.535 0.401,-0.552C0.392,-0.569 0.379,-0.582 0.362,-0.592C0.346,-0.602 0.327,-0.607 0.305,-0.607C0.283,-0.607 0.263,-0.602 0.245,-0.592C0.227,-0.581 0.213,-0.567 0.203,-0.55C0.194,-0.533 0.189,-0.514 0.19,-0.494L0.05,-0.494C0.05,-0.543 0.061,-0.585 0.082,-0.622C0.104,-0.658 0.134,-0.686 0.173,-0.706C0.212,-0.725 0.257,-0.735 0.308,-0.735C0.355,-0.735 0.397,-0.725 0.434,-0.704C0.471,-0.684 0.501,-0.655 0.522,-0.618C0.543,-0.581 0.554,-0.539 0.554,-0.491C0.554,-0.457 0.549,-0.428 0.54,-0.405C0.53,-0.382 0.517,-0.361 0.5,-0.343C0.484,-0.325 0.458,-0.301 0.422,-0.27L0.261,-0.129L0.554,-0.129L0.554,-0.001L0.05,-0.001L0.05,-0.119Z" style="fill:rgb(62,197,222);fill-rule:nonzero;"/>
                    </g>
                    <g transform="matrix(168.734,0,0,168.734,30034.8,13092.3)">
                        <path d="M0.363,-0.112L0.05,-0.112L0.05,-0.239L0.277,-0.72L0.433,-0.72L0.206,-0.239L0.363,-0.239L0.363,-0.419L0.501,-0.419L0.501,-0.239L0.565,-0.239L0.565,-0.112L0.501,-0.112L0.501,-0L0.363,-0L0.363,-0.112Z" style="fill:rgb(62,197,222);fill-rule:nonzero;"/>
                    </g>
                </g>
                <g transform="matrix(0.60366,0,0,1.40795,4117.74,-4962.65)">
                    <path d="M14936.4,10330.6C14941.2,10323.8 14946.6,10317.3 14952.7,10311.2C15009.9,10254 15102.7,10254 15159.9,10311.2C15217.1,10368.4 15217.1,10461.2 15159.9,10518.4C15153.8,10524.5 15147.3,10529.9 15140.5,10534.7L15122.2,10517.2C15146.9,10478.7 15134.6,10420.2 15092.8,10378.3C15050.9,10336.5 14992.4,10324.2 14953.9,10348.9L14936.4,10330.6ZM14995,10310.8C15034,10309.5 15077.1,10326.2 15111,10360.1C15144.9,10394 15161.6,10437.1 15160.3,10476.1C15187.6,10429.8 15181.3,10369.2 15141.6,10329.5C15101.9,10289.8 15041.3,10283.5 14995,10310.8ZM14984.1,10381.4L15002.4,10399.7L14864.2,10537.9C14836.9,10565.2 14792.5,10565.2 14765.2,10537.9C14737.9,10510.6 14737.9,10466.3 14765.2,10439C14792.7,10411.5 14833.9,10409.7 14861.4,10437.2L14870.5,10446.3L14852.3,10464.6L14843.2,10455.4C14826.1,10438.4 14800.5,10440.2 14783.5,10457.2C14766.3,10474.5 14766.3,10502.4 14783.5,10519.7C14800.7,10536.9 14828.7,10536.9 14845.9,10519.7L14984.1,10381.4ZM15070.1,10467.4L15088.3,10485.7L14997.2,10576.8C14984.7,10589.3 14984.7,10609.6 14997.2,10622.2C15009.7,10634.7 15030.1,10634.7 15042.6,10622.2C15054.9,10609.8 15056.4,10591.3 15044,10578.9L15034.9,10569.8L15053.1,10551.6L15062.3,10560.7C15085,10583.5 15083.6,10617.7 15060.8,10640.4C15038.2,10663 15001.5,10663 14978.9,10640.4C14956.3,10617.8 14956.3,10581.1 14978.9,10558.5L15070.1,10467.4ZM15052.8,10400.1L15071,10418.3L14852.7,10636.7C14841.1,10648.3 14834.8,10660.6 14834.2,10672.7C14833.7,10684.1 14838.6,10695 14847.9,10704.3C14863.8,10720.1 14886.2,10721.5 14903.1,10706.7C14923.6,10688.7 14917.9,10662.3 14904,10647.6L14895.2,10638.2L14913.9,10620.5L14922.8,10629.9C14945.4,10653.8 14953.6,10696.8 14920.1,10726.1C14892.5,10750.4 14855.7,10748.5 14829.6,10722.5C14814.7,10707.6 14807.6,10689.8 14808.4,10671.5C14809.2,10653.9 14817.4,10635.4 14834.4,10618.4L15052.8,10400.1Z" style="fill:rgb(62,197,222);"/>
                </g>
            </g>
        </g>
    </g>
</svg>
