<?xml version="1.0" encoding="UTF-8" standalone="no"?>
<!DOCTYPE svg PUBLIC "-//W3C//DTD SVG 1.1//EN" "http://www.w3.org/Graphics/SVG/1.1/DTD/svg11.dtd">
<svg width="100%" height="100%" viewBox="0 0 2000 600" version="1.1" xmlns="http://www.w3.org/2000/svg" xmlns:xlink="http://www.w3.org/1999/xlink" xml:space="preserve" xmlns:serif="http://www.serif.com/" style="fill-rule:evenodd;clip-rule:evenodd;stroke-linejoin:round;stroke-miterlimit:2;">
    <g transform="matrix(1,0,0,1,-9171.61,-10007.2)">
        <g id="FujinIOT32" transform="matrix(0.984395,0,0,0.422059,-3536.28,5999.87)">
            <rect x="12909.3" y="9494.69" width="2031.71" height="1421.6" style="fill:none;"/>
            <g transform="matrix(1.68813,0,0,3.93733,-37475.8,-40886.2)">
                <g transform="matrix(168.734,0,0,168.734,30102.1,13092.3)">
                    <path d="M0.03,-0.54L0.115,-0.54C0.115,-0.563 0.115,-0.581 0.116,-0.595C0.117,-0.609 0.12,-0.624 0.126,-0.641C0.131,-0.657 0.139,-0.672 0.151,-0.685C0.169,-0.705 0.19,-0.719 0.212,-0.725C0.235,-0.732 0.259,-0.735 0.286,-0.735L0.376,-0.735L0.376,-0.625L0.314,-0.625C0.293,-0.625 0.278,-0.62 0.267,-0.61C0.256,-0.599 0.251,-0.586 0.251,-0.57L0.251,-0.54L0.376,-0.54L0.376,-0.435L0.251,-0.435L0.251,-0L0.115,-0L0.115,-0.435L0.03,-0.435L0.03,-0.54Z" style="fill:rgb(42,42,42);fill-rule:nonzero;"/>
                </g>
                <g transform="matrix(168.734,0,0,168.734,30167.3,13092.3)">
                    <path d="M0.271,0.016C0.208,0.016 0.16,-0 0.129,-0.033C0.098,-0.065 0.079,-0.099 0.071,-0.135C0.064,-0.171 0.06,-0.205 0.06,-0.237L0.06,-0.54L0.198,-0.54L0.198,-0.285C0.198,-0.258 0.2,-0.232 0.204,-0.208C0.208,-0.184 0.219,-0.162 0.236,-0.142C0.253,-0.122 0.279,-0.112 0.314,-0.112C0.345,-0.112 0.372,-0.123 0.395,-0.144C0.418,-0.166 0.429,-0.206 0.429,-0.266L0.429,-0.54L0.566,-0.54L0.566,-0L0.446,-0L0.446,-0.056C0.426,-0.033 0.401,-0.015 0.372,-0.003C0.342,0.01 0.309,0.016 0.271,0.016Z" style="fill:rgb(42,42,42);fill-rule:nonzero;"/>
                </g>
                <g transform="matrix(168.734,0,0,168.734,30274.6,13092.3)">
                    <path d="M-0.01,0.113L0.014,0.113C0.044,0.113 0.065,0.106 0.077,0.093C0.089,0.08 0.095,0.059 0.095,0.032L0.095,-0.54L0.231,-0.54L0.231,0.098C0.231,0.126 0.225,0.151 0.213,0.173C0.201,0.194 0.183,0.211 0.161,0.222C0.138,0.234 0.112,0.24 0.082,0.24L-0.01,0.24L-0.01,0.113ZM0.095,-0.735L0.231,-0.735L0.231,-0.615L0.095,-0.615L0.095,-0.735Z" style="fill:rgb(42,42,42);fill-rule:nonzero;"/>
                </g>
                <g transform="matrix(168.734,0,0,168.734,30325.4,13092.3)">
                    <path d="M0.08,-0.735L0.216,-0.735L0.216,-0.615L0.08,-0.615L0.08,-0.735ZM0.08,-0.54L0.216,-0.54L0.216,-0L0.08,-0L0.08,-0.54Z" style="fill:rgb(42,42,42);fill-rule:nonzero;"/>
                </g>
                <g transform="matrix(168.734,0,0,168.734,30375.3,13092.3)">
                    <path d="M0.438,-0.255C0.438,-0.282 0.436,-0.308 0.432,-0.332C0.428,-0.356 0.417,-0.378 0.4,-0.398C0.383,-0.418 0.357,-0.428 0.322,-0.428C0.291,-0.428 0.264,-0.417 0.241,-0.396C0.218,-0.374 0.207,-0.334 0.207,-0.274L0.207,-0L0.069,-0L0.069,-0.54L0.19,-0.54L0.19,-0.485C0.21,-0.507 0.235,-0.525 0.265,-0.537C0.294,-0.55 0.327,-0.556 0.365,-0.556C0.428,-0.556 0.476,-0.54 0.507,-0.507C0.538,-0.475 0.557,-0.441 0.565,-0.405C0.572,-0.369 0.576,-0.335 0.576,-0.303L0.576,-0L0.438,-0L0.438,-0.255Z" style="fill:rgb(42,42,42);fill-rule:nonzero;"/>
                </g>
                <g transform="matrix(168.734,0,0,168.734,30482.6,13092.3)">
                    <path d="M0.11,-0.196L0.246,-0.196L0.246,-0.06L0.11,-0.06L0.11,-0.196ZM0.111,-0.48L0.247,-0.48L0.247,-0.344L0.111,-0.344L0.111,-0.48Z" style="fill:rgb(0,92,153);fill-rule:nonzero;"/>
                </g>
                <g transform="matrix(168.734,0,0,168.734,30542.9,13092.3)">
                    <rect x="0.08" y="-0.72" width="0.136" height="0.72" style="fill:rgb(42,42,42);fill-rule:nonzero;"/>
                </g>
                <g transform="matrix(168.734,0,0,168.734,30592.8,13092.3)">
                    <path d="M0.313,0.015C0.259,0.015 0.212,0.003 0.171,-0.021C0.129,-0.045 0.097,-0.079 0.074,-0.122C0.051,-0.165 0.04,-0.215 0.04,-0.27C0.04,-0.326 0.052,-0.375 0.075,-0.418C0.098,-0.461 0.13,-0.495 0.172,-0.519C0.213,-0.543 0.26,-0.555 0.313,-0.555C0.367,-0.555 0.414,-0.543 0.456,-0.519C0.497,-0.495 0.53,-0.461 0.553,-0.418C0.576,-0.374 0.587,-0.325 0.587,-0.27C0.587,-0.215 0.575,-0.165 0.552,-0.122C0.529,-0.079 0.497,-0.045 0.455,-0.021C0.414,0.003 0.366,0.015 0.313,0.015ZM0.184,-0.27C0.184,-0.221 0.195,-0.182 0.217,-0.154C0.239,-0.126 0.271,-0.112 0.313,-0.112C0.355,-0.112 0.388,-0.126 0.41,-0.155C0.432,-0.184 0.443,-0.222 0.443,-0.27C0.443,-0.319 0.432,-0.358 0.409,-0.386C0.387,-0.414 0.355,-0.428 0.313,-0.428C0.27,-0.428 0.238,-0.414 0.216,-0.386C0.195,-0.358 0.184,-0.319 0.184,-0.27Z" style="fill:rgb(42,42,42);fill-rule:nonzero;"/>
                </g>
                <g transform="matrix(168.734,0,0,168.734,30688.5,13092.3)">
                    <path d="M0.237,-0.593L0.01,-0.593L0.01,-0.72L0.6,-0.72L0.6,-0.593L0.373,-0.593L0.373,-0L0.237,-0L0.237,-0.593Z" style="fill:rgb(42,42,42);fill-rule:nonzero;"/>
                </g>
            </g>
            <g transform="matrix(0.613047,0,0,1.42985,1410.9,-2412.57)">
                <path d="M19846.1,8390.08C19850.9,8383.28 19856.3,8376.81 19862.4,8370.73C19919.6,8313.55 20012.4,8313.55 20069.6,8370.73C20126.8,8427.91 20126.8,8520.75 20069.6,8577.93C20063.5,8584 20057,8589.43 20050.2,8594.22L20031.9,8576.71C20056.6,8538.22 20044.3,8479.68 20002.5,8437.83C19960.6,8395.97 19902.1,8383.75 19863.6,8408.38L19846.1,8390.08ZM19904.7,8370.29C19943.7,8369 19986.8,8385.67 20020.7,8419.57C20054.7,8453.48 20071.3,8496.6 20070,8535.57C20097.3,8489.3 20091.1,8428.7 20051.3,8388.98C20011.6,8349.26 19951,8343.03 19904.7,8370.29ZM19893.8,8440.96L19912.1,8459.21L19773.9,8597.42C19746.6,8624.72 19702.2,8624.72 19674.9,8597.42C19647.6,8570.12 19647.6,8525.79 19674.9,8498.49C19702.4,8471.01 19743.6,8469.21 19771.1,8496.69L19780.2,8505.81L19762,8524.06L19752.9,8514.94C19735.8,8497.89 19710.2,8499.69 19693.2,8516.74C19676,8533.97 19676,8561.94 19693.2,8579.17C19710.4,8596.4 19738.4,8596.4 19755.6,8579.17L19893.8,8440.96ZM19979.8,8526.92L19998,8545.17L19906.9,8636.3C19894.4,8648.82 19894.4,8669.16 19906.9,8681.69C19919.4,8694.21 19939.8,8694.21 19952.3,8681.69C19964.7,8669.34 19966.1,8650.81 19953.7,8638.46L19944.6,8629.33L19962.8,8611.08L19972,8620.21C19994.7,8642.98 19993.3,8677.17 19970.6,8699.94C19948,8722.54 19911.3,8722.54 19888.7,8699.94C19866.1,8677.34 19866.1,8640.64 19888.7,8618.04L19979.8,8526.92ZM19962.5,8459.6L19980.7,8477.85L19762.4,8696.17C19750.8,8707.8 19744.5,8720.11 19743.9,8732.18C19743.4,8743.59 19748.3,8754.47 19757.6,8763.78C19773.5,8779.66 19795.9,8781.05 19812.8,8766.23C19833.3,8748.2 19827.6,8721.81 19813.7,8707.12L19804.9,8697.73L19823.7,8680.02L19832.5,8689.41C19855.1,8713.33 19863.3,8756.27 19829.8,8785.63C19802.2,8809.92 19765.4,8808.06 19739.4,8782.03C19724.4,8767.09 19717.4,8749.35 19718.2,8731.05C19718.9,8713.41 19727.1,8694.92 19744.1,8677.92L19962.5,8459.6Z" style="fill:rgb(0,92,153);"/>
            </g>
        </g>
    </g>
</svg>
