<?xml version="1.0" encoding="UTF-8" standalone="no"?>
<!DOCTYPE svg PUBLIC "-//W3C//DTD SVG 1.1//EN" "http://www.w3.org/Graphics/SVG/1.1/DTD/svg11.dtd">
<svg width="100%" height="100%" viewBox="0 0 2282 724" version="1.1" xmlns="http://www.w3.org/2000/svg" xmlns:xlink="http://www.w3.org/1999/xlink" xml:space="preserve" xmlns:serif="http://www.serif.com/" style="fill-rule:evenodd;clip-rule:evenodd;stroke-linejoin:round;stroke-miterlimit:2;">
    <g transform="matrix(1,0,0,1,-10177.5,-11631.4)">
        <g transform="matrix(1,0,0,1,-79.3037,17.7195)">
            <rect x="10256.8" y="11613.6" width="2281.15" height="723.063" style="fill:white;"/>
        </g>
        <g transform="matrix(1.66179,0,0,1.66179,-39692.6,-9561.78)">
            <g transform="matrix(168.734,0,0,168.734,30102.1,13092.3)">
                <path d="M0.22,0.015C0.183,0.015 0.15,0.008 0.123,-0.007C0.096,-0.021 0.075,-0.041 0.061,-0.066C0.047,-0.091 0.04,-0.119 0.04,-0.149C0.04,-0.188 0.049,-0.222 0.068,-0.249C0.086,-0.276 0.116,-0.297 0.158,-0.312C0.181,-0.321 0.21,-0.328 0.244,-0.334C0.277,-0.34 0.326,-0.348 0.389,-0.358C0.386,-0.383 0.377,-0.401 0.361,-0.413C0.345,-0.425 0.322,-0.431 0.29,-0.431C0.267,-0.431 0.245,-0.426 0.225,-0.415C0.204,-0.404 0.19,-0.388 0.182,-0.365L0.059,-0.404C0.073,-0.451 0.099,-0.488 0.138,-0.515C0.177,-0.542 0.227,-0.555 0.29,-0.555C0.396,-0.555 0.467,-0.522 0.501,-0.457C0.511,-0.439 0.517,-0.421 0.519,-0.402C0.522,-0.384 0.523,-0.36 0.523,-0.33L0.523,-0L0.404,-0L0.404,-0.066C0.38,-0.037 0.354,-0.017 0.325,-0.004C0.296,0.009 0.261,0.015 0.22,0.015ZM0.173,-0.151C0.173,-0.133 0.18,-0.118 0.193,-0.108C0.207,-0.097 0.225,-0.092 0.249,-0.092C0.272,-0.092 0.292,-0.096 0.31,-0.104C0.327,-0.112 0.341,-0.122 0.351,-0.133C0.362,-0.144 0.369,-0.154 0.374,-0.164C0.383,-0.182 0.387,-0.21 0.388,-0.248C0.341,-0.239 0.307,-0.233 0.284,-0.229C0.263,-0.224 0.244,-0.219 0.229,-0.213C0.209,-0.205 0.195,-0.196 0.186,-0.186C0.177,-0.176 0.173,-0.165 0.173,-0.151Z" style="fill:rgb(57,57,57);fill-rule:nonzero;"/>
            </g>
            <g transform="matrix(168.734,0,0,168.734,30200.5,13092.3)">
                <rect x="0.08" y="-0.72" width="0.136" height="0.72" style="fill:rgb(57,57,57);fill-rule:nonzero;"/>
            </g>
            <g transform="matrix(168.734,0,0,168.734,30250.5,13092.3)">
                <path d="M0.335,0.015C0.286,0.015 0.243,0.003 0.206,-0.02L0.206,0.24L0.069,0.24L0.069,-0.54L0.189,-0.54L0.189,-0.51C0.227,-0.54 0.274,-0.555 0.328,-0.555C0.379,-0.555 0.423,-0.543 0.462,-0.519C0.501,-0.494 0.531,-0.46 0.552,-0.417C0.573,-0.374 0.584,-0.325 0.584,-0.27C0.584,-0.216 0.574,-0.168 0.553,-0.125C0.532,-0.081 0.503,-0.047 0.465,-0.022C0.427,0.003 0.384,0.015 0.335,0.015ZM0.189,-0.27C0.189,-0.161 0.23,-0.106 0.313,-0.106C0.355,-0.106 0.387,-0.121 0.408,-0.152C0.429,-0.182 0.44,-0.222 0.44,-0.27C0.44,-0.301 0.435,-0.329 0.426,-0.354C0.416,-0.378 0.401,-0.398 0.382,-0.412C0.362,-0.427 0.337,-0.434 0.308,-0.434C0.267,-0.434 0.237,-0.42 0.218,-0.391C0.199,-0.362 0.189,-0.321 0.189,-0.27Z" style="fill:rgb(57,57,57);fill-rule:nonzero;"/>
            </g>
            <g transform="matrix(168.734,0,0,168.734,30355.8,13092.3)">
                <path d="M0.22,0.015C0.183,0.015 0.15,0.008 0.123,-0.007C0.096,-0.021 0.075,-0.041 0.061,-0.066C0.047,-0.091 0.04,-0.119 0.04,-0.149C0.04,-0.188 0.049,-0.222 0.068,-0.249C0.086,-0.276 0.116,-0.297 0.158,-0.312C0.181,-0.321 0.21,-0.328 0.244,-0.334C0.277,-0.34 0.326,-0.348 0.389,-0.358C0.386,-0.383 0.377,-0.401 0.361,-0.413C0.345,-0.425 0.322,-0.431 0.29,-0.431C0.267,-0.431 0.245,-0.426 0.225,-0.415C0.204,-0.404 0.19,-0.388 0.182,-0.365L0.059,-0.404C0.073,-0.451 0.099,-0.488 0.138,-0.515C0.177,-0.542 0.227,-0.555 0.29,-0.555C0.396,-0.555 0.467,-0.522 0.501,-0.457C0.511,-0.439 0.517,-0.421 0.519,-0.402C0.522,-0.384 0.523,-0.36 0.523,-0.33L0.523,-0L0.404,-0L0.404,-0.066C0.38,-0.037 0.354,-0.017 0.325,-0.004C0.296,0.009 0.261,0.015 0.22,0.015ZM0.173,-0.151C0.173,-0.133 0.18,-0.118 0.193,-0.108C0.207,-0.097 0.225,-0.092 0.249,-0.092C0.272,-0.092 0.292,-0.096 0.31,-0.104C0.327,-0.112 0.341,-0.122 0.351,-0.133C0.362,-0.144 0.369,-0.154 0.374,-0.164C0.383,-0.182 0.387,-0.21 0.388,-0.248C0.341,-0.239 0.307,-0.233 0.284,-0.229C0.263,-0.224 0.244,-0.219 0.229,-0.213C0.209,-0.205 0.195,-0.196 0.186,-0.186C0.177,-0.176 0.173,-0.165 0.173,-0.151Z" style="fill:rgb(57,57,57);fill-rule:nonzero;"/>
            </g>
            <g transform="matrix(168.734,0,0,168.734,30454.1,13092.3)">
                <path d="M0.308,0.015C0.253,0.015 0.206,0.003 0.165,-0.022C0.125,-0.047 0.094,-0.081 0.072,-0.124C0.051,-0.167 0.04,-0.216 0.04,-0.27C0.04,-0.325 0.051,-0.374 0.073,-0.417C0.095,-0.46 0.127,-0.494 0.168,-0.518C0.209,-0.543 0.256,-0.555 0.31,-0.555C0.352,-0.555 0.39,-0.548 0.424,-0.533C0.458,-0.519 0.486,-0.498 0.508,-0.471C0.53,-0.444 0.545,-0.412 0.553,-0.375L0.417,-0.339C0.409,-0.367 0.395,-0.388 0.376,-0.404C0.356,-0.42 0.333,-0.428 0.308,-0.428C0.267,-0.428 0.236,-0.413 0.215,-0.385C0.194,-0.356 0.184,-0.317 0.184,-0.27C0.184,-0.222 0.195,-0.183 0.216,-0.155C0.237,-0.126 0.268,-0.112 0.308,-0.112C0.337,-0.112 0.36,-0.119 0.377,-0.132C0.393,-0.145 0.406,-0.166 0.414,-0.193L0.553,-0.164C0.538,-0.107 0.509,-0.063 0.466,-0.032C0.423,-0.001 0.371,0.015 0.308,0.015Z" style="fill:rgb(57,57,57);fill-rule:nonzero;"/>
            </g>
            <g transform="matrix(168.734,0,0,168.734,30550.8,13092.3)">
                <path d="M0.22,0.015C0.183,0.015 0.15,0.008 0.123,-0.007C0.096,-0.021 0.075,-0.041 0.061,-0.066C0.047,-0.091 0.04,-0.119 0.04,-0.149C0.04,-0.188 0.049,-0.222 0.068,-0.249C0.086,-0.276 0.116,-0.297 0.158,-0.312C0.181,-0.321 0.21,-0.328 0.244,-0.334C0.277,-0.34 0.326,-0.348 0.389,-0.358C0.386,-0.383 0.377,-0.401 0.361,-0.413C0.345,-0.425 0.322,-0.431 0.29,-0.431C0.267,-0.431 0.245,-0.426 0.225,-0.415C0.204,-0.404 0.19,-0.388 0.182,-0.365L0.059,-0.404C0.073,-0.451 0.099,-0.488 0.138,-0.515C0.177,-0.542 0.227,-0.555 0.29,-0.555C0.396,-0.555 0.467,-0.522 0.501,-0.457C0.511,-0.439 0.517,-0.421 0.519,-0.402C0.522,-0.384 0.523,-0.36 0.523,-0.33L0.523,-0L0.404,-0L0.404,-0.066C0.38,-0.037 0.354,-0.017 0.325,-0.004C0.296,0.009 0.261,0.015 0.22,0.015ZM0.173,-0.151C0.173,-0.133 0.18,-0.118 0.193,-0.108C0.207,-0.097 0.225,-0.092 0.249,-0.092C0.272,-0.092 0.292,-0.096 0.31,-0.104C0.327,-0.112 0.341,-0.122 0.351,-0.133C0.362,-0.144 0.369,-0.154 0.374,-0.164C0.383,-0.182 0.387,-0.21 0.388,-0.248C0.341,-0.239 0.307,-0.233 0.284,-0.229C0.263,-0.224 0.244,-0.219 0.229,-0.213C0.209,-0.205 0.195,-0.196 0.186,-0.186C0.177,-0.176 0.173,-0.165 0.173,-0.151Z" style="fill:rgb(57,57,57);fill-rule:nonzero;"/>
            </g>
        </g>
        <g transform="matrix(1.66179,0,0,1.66179,-39692.6,-9561.78)">
            <g transform="matrix(168.734,0,0,168.734,30639.1,13092.3)">
                <path d="M0.237,-0.593L0.01,-0.593L0.01,-0.72L0.6,-0.72L0.6,-0.593L0.373,-0.593L0.373,-0L0.237,-0L0.237,-0.593Z" style="fill:url(#_Linear1);fill-rule:nonzero;"/>
            </g>
            <g transform="matrix(168.734,0,0,168.734,30728.5,13092.3)">
                <path d="M0.313,0.015C0.259,0.015 0.212,0.003 0.171,-0.021C0.129,-0.045 0.097,-0.079 0.074,-0.122C0.051,-0.165 0.04,-0.215 0.04,-0.27C0.04,-0.326 0.052,-0.375 0.075,-0.418C0.098,-0.461 0.13,-0.495 0.172,-0.519C0.213,-0.543 0.26,-0.555 0.313,-0.555C0.367,-0.555 0.414,-0.543 0.456,-0.519C0.497,-0.495 0.53,-0.461 0.553,-0.418C0.576,-0.374 0.587,-0.325 0.587,-0.27C0.587,-0.215 0.575,-0.165 0.552,-0.122C0.529,-0.079 0.497,-0.045 0.455,-0.021C0.414,0.003 0.366,0.015 0.313,0.015ZM0.184,-0.27C0.184,-0.221 0.195,-0.182 0.217,-0.154C0.239,-0.126 0.271,-0.112 0.313,-0.112C0.355,-0.112 0.388,-0.126 0.41,-0.155C0.432,-0.184 0.443,-0.222 0.443,-0.27C0.443,-0.319 0.432,-0.358 0.409,-0.386C0.387,-0.414 0.355,-0.428 0.313,-0.428C0.27,-0.428 0.238,-0.414 0.216,-0.386C0.195,-0.358 0.184,-0.319 0.184,-0.27Z" style="fill:url(#_Linear2);fill-rule:nonzero;"/>
            </g>
            <g transform="matrix(168.734,0,0,168.734,30834.3,13092.3)">
                <path d="M0.313,0.015C0.259,0.015 0.212,0.003 0.171,-0.021C0.129,-0.045 0.097,-0.079 0.074,-0.122C0.051,-0.165 0.04,-0.215 0.04,-0.27C0.04,-0.326 0.052,-0.375 0.075,-0.418C0.098,-0.461 0.13,-0.495 0.172,-0.519C0.213,-0.543 0.26,-0.555 0.313,-0.555C0.367,-0.555 0.414,-0.543 0.456,-0.519C0.497,-0.495 0.53,-0.461 0.553,-0.418C0.576,-0.374 0.587,-0.325 0.587,-0.27C0.587,-0.215 0.575,-0.165 0.552,-0.122C0.529,-0.079 0.497,-0.045 0.455,-0.021C0.414,0.003 0.366,0.015 0.313,0.015ZM0.184,-0.27C0.184,-0.221 0.195,-0.182 0.217,-0.154C0.239,-0.126 0.271,-0.112 0.313,-0.112C0.355,-0.112 0.388,-0.126 0.41,-0.155C0.432,-0.184 0.443,-0.222 0.443,-0.27C0.443,-0.319 0.432,-0.358 0.409,-0.386C0.387,-0.414 0.355,-0.428 0.313,-0.428C0.27,-0.428 0.238,-0.414 0.216,-0.386C0.195,-0.358 0.184,-0.319 0.184,-0.27Z" style="fill:url(#_Linear3);fill-rule:nonzero;"/>
            </g>
            <g transform="matrix(168.734,0,0,168.734,30940.1,13092.3)">
                <rect x="0.08" y="-0.72" width="0.136" height="0.72" style="fill:url(#_Linear4);fill-rule:nonzero;"/>
            </g>
            <g transform="matrix(168.734,0,0,168.734,30990,13092.3)">
                <path d="M0.335,0.015C0.278,0.015 0.229,-0 0.189,-0.031L0.189,-0L0.069,-0L0.069,-0.72L0.206,-0.72L0.206,-0.522C0.241,-0.544 0.282,-0.555 0.328,-0.555C0.379,-0.555 0.423,-0.543 0.462,-0.519C0.501,-0.494 0.531,-0.46 0.552,-0.417C0.573,-0.374 0.584,-0.325 0.584,-0.27C0.584,-0.216 0.574,-0.168 0.553,-0.125C0.532,-0.081 0.503,-0.047 0.465,-0.022C0.427,0.003 0.384,0.015 0.335,0.015ZM0.189,-0.27C0.189,-0.161 0.23,-0.106 0.313,-0.106C0.355,-0.106 0.387,-0.121 0.408,-0.152C0.429,-0.182 0.44,-0.222 0.44,-0.27C0.44,-0.301 0.435,-0.329 0.426,-0.354C0.416,-0.378 0.401,-0.398 0.382,-0.412C0.362,-0.427 0.337,-0.434 0.308,-0.434C0.267,-0.434 0.237,-0.42 0.218,-0.391C0.199,-0.362 0.189,-0.321 0.189,-0.27Z" style="fill:url(#_Linear5);fill-rule:nonzero;"/>
            </g>
            <g transform="matrix(168.734,0,0,168.734,31095.3,13092.3)">
                <path d="M0.313,0.015C0.259,0.015 0.212,0.003 0.171,-0.021C0.129,-0.045 0.097,-0.079 0.074,-0.122C0.051,-0.165 0.04,-0.215 0.04,-0.27C0.04,-0.326 0.052,-0.375 0.075,-0.418C0.098,-0.461 0.13,-0.495 0.172,-0.519C0.213,-0.543 0.26,-0.555 0.313,-0.555C0.367,-0.555 0.414,-0.543 0.456,-0.519C0.497,-0.495 0.53,-0.461 0.553,-0.418C0.576,-0.374 0.587,-0.325 0.587,-0.27C0.587,-0.215 0.575,-0.165 0.552,-0.122C0.529,-0.079 0.497,-0.045 0.455,-0.021C0.414,0.003 0.366,0.015 0.313,0.015ZM0.184,-0.27C0.184,-0.221 0.195,-0.182 0.217,-0.154C0.239,-0.126 0.271,-0.112 0.313,-0.112C0.355,-0.112 0.388,-0.126 0.41,-0.155C0.432,-0.184 0.443,-0.222 0.443,-0.27C0.443,-0.319 0.432,-0.358 0.409,-0.386C0.387,-0.414 0.355,-0.428 0.313,-0.428C0.27,-0.428 0.238,-0.414 0.216,-0.386C0.195,-0.358 0.184,-0.319 0.184,-0.27Z" style="fill:url(#_Linear6);fill-rule:nonzero;"/>
            </g>
            <g transform="matrix(168.734,0,0,168.734,31197.7,13092.3)">
                <path d="M0.203,-0.273L0.014,-0.54L0.174,-0.54L0.282,-0.38L0.388,-0.54L0.548,-0.54L0.359,-0.273L0.553,-0L0.393,-0L0.282,-0.166L0.17,-0L0.01,-0L0.203,-0.273Z" style="fill:url(#_Linear7);fill-rule:nonzero;"/>
            </g>
        </g>
        <g transform="matrix(0.603481,0,0,0.603481,-1021.57,6700.65)">
            <path d="M19846.1,8390.08C19850.9,8383.28 19856.3,8376.81 19862.4,8370.73C19919.6,8313.55 20012.4,8313.55 20069.6,8370.73C20126.8,8427.91 20126.8,8520.75 20069.6,8577.93C20063.5,8584 20057,8589.43 20050.2,8594.22L20031.9,8576.71C20056.6,8538.22 20044.3,8479.68 20002.5,8437.83C19960.6,8395.97 19902.1,8383.75 19863.6,8408.38L19846.1,8390.08ZM19904.7,8370.29C19943.7,8369 19986.8,8385.67 20020.7,8419.57C20054.7,8453.48 20071.3,8496.6 20070,8535.57C20097.3,8489.3 20091.1,8428.7 20051.3,8388.98C20011.6,8349.26 19951,8343.03 19904.7,8370.29ZM19893.8,8440.96L19912.1,8459.21L19773.9,8597.42C19746.6,8624.72 19702.2,8624.72 19674.9,8597.42C19647.6,8570.12 19647.6,8525.79 19674.9,8498.49C19702.4,8471.01 19743.6,8469.21 19771.1,8496.69L19780.2,8505.81L19762,8524.06L19752.9,8514.94C19735.8,8497.89 19710.2,8499.69 19693.2,8516.74C19676,8533.97 19676,8561.94 19693.2,8579.17C19710.4,8596.4 19738.4,8596.4 19755.6,8579.17L19893.8,8440.96ZM19979.8,8526.92L19998,8545.17L19906.9,8636.3C19894.4,8648.82 19894.4,8669.16 19906.9,8681.69C19919.4,8694.21 19939.8,8694.21 19952.3,8681.69C19964.7,8669.34 19966.1,8650.81 19953.7,8638.46L19944.6,8629.33L19962.8,8611.08L19972,8620.21C19994.7,8642.98 19993.3,8677.17 19970.6,8699.94C19948,8722.54 19911.3,8722.54 19888.7,8699.94C19866.1,8677.34 19866.1,8640.64 19888.7,8618.04L19979.8,8526.92ZM19962.5,8459.6L19980.7,8477.85L19762.4,8696.17C19750.8,8707.8 19744.5,8720.11 19743.9,8732.18C19743.4,8743.59 19748.3,8754.47 19757.6,8763.78C19773.5,8779.66 19795.9,8781.05 19812.8,8766.23C19833.3,8748.2 19827.6,8721.81 19813.7,8707.12L19804.9,8697.73L19823.7,8680.02L19832.5,8689.41C19855.1,8713.33 19863.3,8756.27 19829.8,8785.63C19802.2,8809.92 19765.4,8808.06 19739.4,8782.03C19724.4,8767.09 19717.4,8749.35 19718.2,8731.05C19718.9,8713.41 19727.1,8694.92 19744.1,8677.92L19962.5,8459.6Z" style="fill:url(#_Linear8);"/>
        </g>
    </g>
    <defs>
        <linearGradient id="_Linear1" x1="0" y1="0" x2="1" y2="0" gradientUnits="userSpaceOnUse" gradientTransform="matrix(3.73771,0,0,3.73771,0.126287,-0.3525)"><stop offset="0" style="stop-color:rgb(205,0,255);stop-opacity:1"/><stop offset="1" style="stop-color:rgb(0,24,153);stop-opacity:1"/></linearGradient>
        <linearGradient id="_Linear2" x1="0" y1="0" x2="1" y2="0" gradientUnits="userSpaceOnUse" gradientTransform="matrix(3.73771,0,0,3.73771,-0.403713,-0.3525)"><stop offset="0" style="stop-color:rgb(205,0,255);stop-opacity:1"/><stop offset="1" style="stop-color:rgb(0,24,153);stop-opacity:1"/></linearGradient>
        <linearGradient id="_Linear3" x1="0" y1="0" x2="1" y2="0" gradientUnits="userSpaceOnUse" gradientTransform="matrix(3.73771,0,0,3.73771,-1.03071,-0.3525)"><stop offset="0" style="stop-color:rgb(205,0,255);stop-opacity:1"/><stop offset="1" style="stop-color:rgb(0,24,153);stop-opacity:1"/></linearGradient>
        <linearGradient id="_Linear4" x1="0" y1="0" x2="1" y2="0" gradientUnits="userSpaceOnUse" gradientTransform="matrix(3.73771,0,0,3.73771,-1.65771,-0.3525)"><stop offset="0" style="stop-color:rgb(205,0,255);stop-opacity:1"/><stop offset="1" style="stop-color:rgb(0,24,153);stop-opacity:1"/></linearGradient>
        <linearGradient id="_Linear5" x1="0" y1="0" x2="1" y2="0" gradientUnits="userSpaceOnUse" gradientTransform="matrix(3.73771,0,0,3.73771,-1.95371,-0.3525)"><stop offset="0" style="stop-color:rgb(205,0,255);stop-opacity:1"/><stop offset="1" style="stop-color:rgb(0,24,153);stop-opacity:1"/></linearGradient>
        <linearGradient id="_Linear6" x1="0" y1="0" x2="1" y2="0" gradientUnits="userSpaceOnUse" gradientTransform="matrix(3.73771,0,0,3.73771,-2.57771,-0.3525)"><stop offset="0" style="stop-color:rgb(205,0,255);stop-opacity:1"/><stop offset="1" style="stop-color:rgb(0,24,153);stop-opacity:1"/></linearGradient>
        <linearGradient id="_Linear7" x1="0" y1="0" x2="1" y2="0" gradientUnits="userSpaceOnUse" gradientTransform="matrix(3.73771,0,0,3.73771,-3.18471,-0.3525)"><stop offset="0" style="stop-color:rgb(205,0,255);stop-opacity:1"/><stop offset="1" style="stop-color:rgb(0,24,153);stop-opacity:1"/></linearGradient>
        <linearGradient id="_Linear8" x1="0" y1="0" x2="1" y2="0" gradientUnits="userSpaceOnUse" gradientTransform="matrix(297.58,-297.58,297.58,297.58,19744.1,8677.92)"><stop offset="0" style="stop-color:rgb(205,0,255);stop-opacity:1"/><stop offset="1" style="stop-color:rgb(0,24,153);stop-opacity:1"/></linearGradient>
    </defs>
</svg>
