<?xml version="1.0" encoding="UTF-8" standalone="no"?>
<!DOCTYPE svg PUBLIC "-//W3C//DTD SVG 1.1//EN" "http://www.w3.org/Graphics/SVG/1.1/DTD/svg11.dtd">
<svg width="17" height="17" viewBox="0 0 105 109" version="1.1" xmlns="http://www.w3.org/2000/svg" xmlns:xlink="http://www.w3.org/1999/xlink" xml:space="preserve" xmlns:serif="http://www.serif.com/" style="fill-rule:evenodd;clip-rule:evenodd;stroke-linejoin:round;stroke-miterlimit:2;">
    <g transform="matrix(1,0,0,1,-19473.5,-8107.33)">
        <g transform="matrix(0.221374,0,0,0.221374,15124.1,6265.36)">
            <path d="M19840.2,8385.92C19845.2,8378.8 19850.9,8372 19857.3,8365.63C19917.3,8305.63 20014.7,8305.63 20074.7,8365.63C20134.7,8425.62 20134.7,8523.04 20074.7,8583.03C20068.3,8589.41 20061.5,8595.1 20054.4,8600.12L20049.5,8603.54L20022.7,8577.82L20025.9,8572.82C20048.9,8536.77 20036.6,8482.13 19997.4,8442.93C19958.2,8403.73 19903.5,8391.39 19867.5,8414.46L19862.5,8417.66L19836.8,8390.78L19840.2,8385.92ZM19934.4,8365.32C19966.4,8371.08 19998.9,8387.53 20025.8,8414.47C20052.8,8441.41 20069.2,8473.95 20075,8505.91C20086.1,8467.49 20076.5,8424.34 20046.2,8394.09C20016,8363.83 19972.8,8354.25 19934.4,8365.32ZM19922.3,8459.21L19779,8602.52C19748.9,8632.64 19699.9,8632.64 19669.8,8602.52C19639.7,8572.41 19639.7,8523.5 19669.8,8493.38C19700.2,8462.99 19745.8,8461.19 19776.2,8491.58L19790.5,8505.81L19762,8534.27L19747.8,8520.04C19733.6,8505.9 19712.4,8507.7 19698.3,8521.84C19683.9,8536.25 19683.9,8559.65 19698.3,8574.06C19712.7,8588.47 19736.1,8588.47 19750.5,8574.06L19893.8,8430.75L19922.3,8459.21ZM20008.2,8545.17L19912,8641.4C19902.3,8651.11 19902.3,8666.87 19912,8676.58C19921.7,8686.29 19937.5,8686.29 19947.2,8676.58C19956.6,8667.14 19958.1,8653 19948.6,8643.56L19940.8,8635.77L19969.3,8607.31L19977.1,8615.1C20002.8,8640.79 20001.3,8679.35 19975.7,8705.04C19950.2,8730.46 19909,8730.46 19883.6,8705.04C19858.1,8679.63 19858.1,8638.36 19883.6,8612.94L19979.8,8516.71L20008.2,8545.17ZM19990.9,8477.85L19767.5,8701.27C19757.4,8711.41 19751.6,8721.99 19751.2,8732.5C19750.7,8741.98 19755,8750.93 19762.7,8758.67C19775.8,8771.72 19794.2,8772.98 19808,8760.81C19825,8745.94 19819.9,8724.18 19808.5,8712.07L19794.7,8697.43L19823.9,8669.82L19837.8,8684.45C19862.8,8710.96 19871.6,8758.53 19834.6,8791.05C19803.9,8817.99 19763.1,8816 19734.2,8787.13C19717.7,8770.63 19710.1,8750.97 19710.9,8730.74C19711.8,8711.54 19720.5,8691.32 19739,8672.82L19962.5,8449.39L19990.9,8477.85Z" style="fill:#3EC5DE!important;"/>
            </g>
            </g>
            </svg>